# This file uses centimeters as units for non-parametric coordinates.

mtllib Grass_1.mtl
g default
v 0.000000 1.000000 1.000000
v 0.000000 0.800000 1.000000
v 0.000000 0.600000 1.000000
v 0.000000 0.400000 1.000000
v 0.000000 0.200000 1.000000
v 0.000000 0.000000 1.000000
v 0.000000 1.000000 -1.000000
v 0.000000 0.800000 -1.000000
v 0.000000 0.600000 -1.000000
v 0.000000 0.400000 -1.000000
v 0.000000 0.200000 -1.000000
v 0.000000 0.000000 -1.000000
vt 0.000000 0.000000
vt 0.200000 0.000000
vt 0.400000 0.000000
vt 0.600000 0.000000
vt 0.800000 0.000000
vt 1.000000 0.000000
vt 0.000000 1.000000
vt 0.200000 1.000000
vt 0.400000 1.000000
vt 0.600000 1.000000
vt 0.800000 1.000000
vt 1.000000 1.000000
vn 1.000000 0.000000 0.000000
vn 1.000000 0.000000 0.000000
vn 1.000000 0.000000 0.000000
vn 1.000000 0.000000 0.000000
vn 1.000000 0.000000 0.000000
vn 1.000000 0.000000 0.000000
vn 1.000000 0.000000 0.000000
vn 1.000000 0.000000 0.000000
vn 1.000000 0.000000 0.000000
vn 1.000000 0.000000 0.000000
vn 1.000000 0.000000 0.000000
vn 1.000000 0.000000 0.000000
s 1
g pPlane1
usemtl initialShadingGroup
f 1/1/1 2/2/2 8/8/3 7/7/4
f 2/2/2 3/3/5 9/9/6 8/8/3
f 3/3/5 4/4/7 10/10/8 9/9/6
f 4/4/7 5/5/9 11/11/10 10/10/8
f 5/5/9 6/6/11 12/12/12 11/11/10
