# This file uses centimeters as units for non-parametric coordinates.

mtllib Rock_1.mtl
g default
v 0.059976 0.204190 -0.781128
v 0.650621 0.535517 -0.363022
v -0.166137 0.847729 -0.444902
v -0.743635 0.158112 -0.320905
v -0.213650 -0.000003 -0.345692
v 0.671328 0.079564 -0.346204
v 0.789330 0.059036 0.298888
v 0.307423 0.818536 0.316514
v -0.592486 0.579557 0.323546
v -0.618074 0.169826 0.448266
v 0.213650 -0.000003 0.345692
v 0.069971 0.269417 0.737610
v 0.417733 0.677216 -0.424481
v 0.299706 0.288283 -0.658271
v 0.283818 0.087717 -0.699194
v 0.225054 -0.000001 -0.345692
v 0.499667 0.760878 0.008757
v 0.498069 0.508081 0.322271
v 0.459030 0.143548 0.526294
v -0.138499 0.636302 -0.549644
v -0.054335 0.807714 -0.454322
v -0.471852 0.103710 -0.531060
v -0.437220 0.000000 -0.345692
v -0.037618 0.927573 -0.248115
v 0.029811 0.798476 0.356091
v -0.272339 -0.000001 0.345692
v -0.115537 0.291386 0.691058
v -0.200038 0.119630 0.709060
v -0.719944 0.382545 -0.042486
v -0.397763 0.799902 -0.141823
v -0.744447 0.220025 0.049038
v 0.685667 0.371155 -0.131250
v 0.676932 0.049888 -0.160891
v 0.549753 0.714591 -0.136909
v 0.489136 0.805862 -0.183222
v 0.053457 0.942105 -0.097436
v -0.049063 0.911934 -0.034477
vt 0.397113 0.776352
vt 0.264321 0.644380
vt 0.011371 0.102045
vt 0.340007 0.004883
vt 0.556376 0.082104
vt 0.379216 0.620965
vt 0.358510 0.498787
vt 0.108935 0.459715
vt 0.241586 0.207655
vt 0.350049 0.213339
vt 0.507790 0.420333
vt 0.336322 0.370762
vt 0.181673 0.868221
vt 0.493336 0.995117
vt 0.556433 0.777277
vt 0.224755 0.698836
vt 0.343156 0.733700
vt 0.393041 0.720399
vt 0.470101 0.666420
vt 0.168186 0.570427
vt 0.231392 0.474636
vt 0.374316 0.439377
vt 0.261611 0.850600
vt 0.191192 0.823345
vt 0.478599 0.885629
vt 0.545370 0.874454
vt 0.479594 0.040466
vt 0.107264 0.773905
vt 0.004883 0.200271
vt 0.138908 0.366194
vt 0.439503 0.261188
vt 0.322142 0.334892
vt 0.368814 0.316977
vt 0.282576 0.103759
vt 0.115018 0.152526
vt 0.335717 0.112572
vt 0.287438 0.585510
vt 0.380474 0.578574
vt 0.199158 0.607467
vt 0.181673 0.631444
vt 0.073785 0.703265
vt 0.016850 0.272987
vt 0.054243 0.259683
vn 0.226789 0.538802 -0.811332
vn 0.173554 0.469958 -0.865459
vn 0.222069 0.481854 -0.847645
vn 0.268179 0.430992 -0.861584
vn 0.156291 0.420309 -0.893819
vn -0.450363 0.251997 -0.856546
vn -0.518980 0.297568 -0.801320
vn -0.519489 0.297908 -0.800864
vn -0.040085 -0.894747 -0.444772
vn -0.035546 -0.892424 -0.449795
vn -0.147238 -0.887013 -0.437641
vn -0.241126 -0.865449 -0.439155
vn -0.104545 -0.961045 -0.255855
vn 0.039034 -0.944173 -0.327130
vn -0.106133 -0.915143 -0.388909
vn 0.000002 -0.905393 -0.424574
vn 0.408263 0.151341 -0.900232
vn 0.623665 0.058090 -0.779531
vn 0.596768 0.114768 -0.794164
vn 0.552568 0.755548 -0.351874
vn 0.343134 0.824006 -0.450858
vn 0.713438 0.638049 -0.289656
vn 0.374420 0.887766 -0.267734
vn -0.717540 0.516948 -0.466799
vn -0.751092 0.518731 -0.408385
vn -0.755154 0.546407 -0.362190
vn -0.796448 0.561235 -0.225138
vn -0.444167 -0.883813 0.146937
vn -0.139759 -0.907167 0.396883
vn -0.376218 -0.925459 0.044563
vn -0.258027 -0.948854 0.181930
vn 0.991799 0.040572 -0.121199
vn 0.986006 0.014217 -0.166102
vn 0.996826 0.009270 -0.079073
vn 0.983821 -0.010246 -0.178859
vn 0.922343 0.367005 0.120794
vn 0.915896 0.365209 0.166608
vn 0.874102 0.441862 0.201751
vn -0.366116 0.920799 -0.134495
vn -0.345267 0.908791 0.234288
vn -0.340309 0.939440 -0.040528
vn -0.313701 0.914567 0.255261
vn -0.990486 0.135356 -0.024827
vn -0.962671 0.178744 0.203263
vn -0.973200 0.205194 0.103813
vn 0.590546 0.345052 0.729517
vn 0.552443 0.352854 0.755183
vn 0.558083 0.358947 0.748131
vn 0.072541 0.586983 0.806343
vn -0.111064 0.590852 0.799099
vn -0.069021 0.580060 0.811644
vn -0.209843 0.580064 0.787078
vn -0.471912 0.283578 0.834795
vn -0.472088 0.286481 0.833704
vn -0.423603 0.280039 0.861475
vn -0.445463 0.307296 0.840911
vn -0.325831 -0.876847 0.353516
vn -0.147036 -0.930462 0.335591
vn 0.021361 -0.894211 0.447136
vn 0.080595 -0.830735 0.550803
vn 0.093578 -0.837425 0.538481
vn 0.050690 -0.814234 0.578319
vn 0.437494 0.362023 -0.823127
vn 0.171360 -0.962491 -0.210349
vn 0.647998 0.015210 -0.761490
vn 0.643400 0.000983 -0.765530
vn 0.334725 0.926621 -0.171268
vn 0.371946 0.922285 0.105103
vn 0.364756 0.929553 0.053700
vn 0.089929 -0.995947 0.001482
vn 0.090496 -0.995896 0.001491
vn 0.175523 -0.984471 0.002893
vn 0.848405 0.461127 0.259942
vn 0.870879 0.386408 0.303740
vn 0.779285 0.485890 0.395760
vn 0.538722 0.359578 0.761894
vn 0.545106 0.348881 0.762327
vn 0.128569 -0.854009 0.504121
vn 0.086699 0.451321 -0.888140
vn -0.542146 0.313065 -0.779787
vn -0.542146 0.313065 -0.779787
vn -0.449384 -0.812763 -0.370770
vn -0.096768 0.964001 0.247665
vn -0.157880 -0.987367 -0.013400
vn -0.230808 -0.972802 -0.019591
vn -0.449668 -0.892380 -0.038169
vn -0.245385 0.582308 0.775051
vn -0.215172 0.205915 0.954621
vn 0.134098 -0.885786 0.444298
vn 0.332261 -0.715971 0.613994
vn 0.313617 0.857832 -0.407148
vn 0.258822 0.825836 -0.501005
vn 0.253809 0.827167 -0.501373
vn -0.796123 0.603269 -0.047481
vn -0.380321 -0.924846 0.004099
vn 0.000003 -1.000000 -0.000002
vn 0.971406 -0.004510 -0.237381
vn 0.829065 0.528196 0.183468
vn -0.238820 0.923148 0.301269
vn -0.331217 0.898848 0.286999
vn -0.939783 0.171493 0.295631
vn -0.936158 0.154583 0.315773
vn -0.000003 -1.000000 0.000002
vn -0.064327 -0.985676 -0.155902
vn 0.028085 -0.996973 -0.072502
vn 0.090899 -0.995748 -0.014936
vn 0.101611 -0.994811 -0.005047
vn -0.026040 0.953402 0.300578
s 1
g pPlatonic1
usemtl initialShadingGroup
f 1/1/1 20/23/2 14/17/3
f 14/17/3 20/23/2 13/16/4
f 20/23/2 21/24/5 13/16/4
s 2
f 1/1/6 22/25/7 20/23/8
s 3
f 1/1/9 5/15/10 22/25/11
f 22/25/11 5/15/10 23/26/12
s 4
f 15/18/13 16/19/14 1/1/15
f 1/1/15 16/19/14 5/15/16
s 5
f 1/1/17 14/17/18 15/18/19
s 6
f 2/2/20 13/16/21 34/39/22
f 34/39/22 13/16/21 35/40/23
s 7
f 3/3/24 4/4/25 30/35/26
f 30/35/26 4/4/25 29/34/27
s 8
f 4/4/28 23/27/29 31/36/30
f 31/36/30 23/27/29 5/5/31
s 9
f 2/2/32 32/37/33 6/6/34
f 6/6/34 32/37/33 33/38/35
s 10
f 2/2/36 34/39/37 32/37/38
s 11
f 3/3/39 30/35/40 24/29/41
f 24/29/41 30/35/40 37/43/42
s 12
f 4/4/43 31/36/44 29/34/45
s 13
f 7/7/46 18/21/47 19/22/48
s 14
f 8/8/49 25/30/50 12/12/51
f 12/12/51 25/30/50 27/32/52
s 15
f 9/9/53 10/10/54 27/32/55
f 27/32/55 10/10/54 28/33/56
s 16
f 10/10/57 26/31/58 28/33/59
s 17
f 11/11/60 19/22/61 12/12/62
s 1
f 14/17/3 13/16/4 2/2/63
s 4
f 16/19/14 15/18/13 6/6/64
s 5
f 15/18/19 14/17/18 6/6/65
f 6/6/65 14/17/18 2/2/66
s 6
f 35/40/23 36/41/67 17/20/68
f 17/20/68 36/41/67 8/8/69
s 18
f 11/11/70 16/19/71 6/6/72
s 10
f 18/21/73 17/20/74 8/8/75
s 13
f 19/22/48 18/21/47 12/12/76
f 12/12/76 18/21/47 8/8/77
s 17
f 19/22/61 11/11/60 7/7/78
s 1
f 21/24/5 20/23/2 3/13/79
s 2
f 20/23/8 22/25/7 4/14/80 3/13/81
s 3
f 22/25/11 23/26/12 4/14/82
s 11
f 24/29/41 37/43/42 36/42/83
s 20
f 5/5/84 26/31/85 10/10/86
s 14
f 27/32/52 25/30/50 9/9/87
s 15
f 27/32/55 28/33/56 12/12/88
s 16
f 26/31/58 11/11/89 28/33/59
f 28/33/59 11/11/89 12/12/90
s 6
f 24/28/91 21/24/92 3/13/93
f 34/39/22 35/40/23 17/20/68
s 7
f 30/35/26 29/34/27 9/9/94
s 8
f 31/36/30 5/5/31 10/10/95
s 18
f 5/15/96 16/19/71 11/11/70
s 9
f 33/38/35 32/37/33 7/7/97
s 10
f 7/7/98 32/37/38 18/21/73
f 34/39/37 17/20/74 32/37/38
f 32/37/38 17/20/74 18/21/73
s 11
f 37/43/42 30/35/40 25/30/99
f 25/30/99 30/35/40 9/9/100
s 12
f 29/34/45 31/36/44 9/9/101
f 9/9/101 31/36/44 10/10/102
s 20
f 5/5/84 11/11/103 26/31/85
s 22
f 6/6/104 33/38/105 11/11/106
f 33/38/105 7/7/107 11/11/106
s 6
f 21/24/92 24/28/91 13/16/21
f 24/28/91 36/41/67 13/16/21
f 36/41/67 35/40/23 13/16/21
s 11
f 37/43/42 25/30/99 36/42/83
f 36/42/83 25/30/99 8/8/108
